<?xml version="1.0" encoding="UTF-8"?>
<svg xmlns="http://www.w3.org/2000/svg" viewBox="0 0 64 64">
  <defs>
    <filter id="s" x="-20%" y="-20%" width="140%" height="140%">
      <feDropShadow dx="0" dy="1.5" stdDeviation="1.5" flood-color="#667eea" flood-opacity="0.35"/>
    </filter>
  </defs>
  <g filter="url(#s)">
    <!-- Ghost body -->
    <path d="M32 8c9.389 0 17 7.611 17 17v12.5c0 1.657 1.343 3 3 3 0 5.5-3.5 9-6.5 9-3.5 0-5.5-3-7.5-3s-4 3-6 3-4-3-6-3-4 3-7.5 3C15.5 49.5 12 46 12 40.5c1.657 0 3-1.343 3-3V25c0-9.389 7.611-17 17-17z" fill="#ffffff" stroke="#667eea" stroke-width="3" stroke-linejoin="round"/>
    <!-- Eyes -->
    <circle cx="25.5" cy="27.5" r="3.2" fill="#667eea"/>
    <circle cx="38.5" cy="27.5" r="3.2" fill="#667eea"/>
    <!-- Mouth -->
    <path d="M26 36c1.8 1.6 4 2.4 6 2.4s4.2-.8 6-2.4" fill="none" stroke="#667eea" stroke-width="2.2" stroke-linecap="round"/>
  </g>
</svg>

